<!-- Role: unique StreamDock vector logo used by renderer and packaging. -->
<svg width="110" height="64" viewBox="0 0 110 64" fill="none" xmlns="http://www.w3.org/2000/svg">
  <rect x="5" y="8" width="54" height="48" rx="12" fill="#0B1115" stroke="#2DD4BF" stroke-width="3"/>
  <path d="M18 42V25C18 21.7 21.7 19.8 24.4 21.7L37.8 31.2C40.1 32.8 40.1 36.2 37.8 37.8L24.4 47.3C21.7 49.2 18 47.3 18 44V42Z" fill="#2DD4BF"/>
  <path d="M52 18H67C73.1 18 78 22.9 78 29V35C78 41.1 82.9 46 89 46H104" stroke="#38BDF8" stroke-width="5" stroke-linecap="round"/>
  <path d="M52 46H65C71.1 46 76 41.1 76 35V29C76 22.9 80.9 18 87 18H104" stroke="#2DD4BF" stroke-width="5" stroke-linecap="round"/>
</svg>
